# xmcd
#
# Track frame offsets:
#	150
#	11197
#	24520
#	36272
#	47945
#	60485
#	71517
#	83430
#	96317
#	111512
#	122300
#	134225
#
# Disc length: 1981 seconds
#
# Revision: 0
# Processed by: cddbd v1.4PL0 Copyright (c) Steve Scherf et al.
# Submitted via: audiograbber 1.81.03
#
DISCID=a507bb0c
DTITLE=Sam 'N' Dave - Roots 'N' Blues
DYEAR=1990
DGENRE=Blues
TTITLE0=Hold On I'm Coming
TTITLE1=I Thank You
TTITLE2=Said I Wasn't Gonna Tell Anybody
TTITLE3=If You Don't Know Like I Know
TTITLE4=You Got Me Hummin'
TTITLE5=Can't You Find Another Way
TTITLE6=Soothe Me
TTITLE7=Soul  Man
TTITLE8=When Something Is Wrong
TTITLE9=Soul Sister, Brown Sugar
TTITLE10=You Don't Know What You Mean To Me
TTITLE11=Don't Pull Your Love
EXTD=
EXTT0=
EXTT1=
EXTT2=
EXTT3=
EXTT4=
EXTT5=
EXTT6=
EXTT7=
EXTT8=
EXTT9=
EXTT10=
EXTT11=
PLAYORDER=
